# xmcd
#
# Track frame offsets: 
#        150
#        32845
#        51650
#        66105
#        82683
#        110155
#        124588
#        151975
#        174800
#        199505
#        233138
#
# Disc length: 3308 seconds
#
# Revision: 1
# Processed by: cddbd v1.5.2PL0 Copyright (c) Steve Scherf et al.
# Submitted via: ExactAudioCopy v0.99pb5
#
DISCID=880cea0b
DTITLE=Victory Of The Better Man - L'Utopiste
DYEAR=1991
DGENRE=Jazz
TTITLE0=In einem Zug...
TTITLE1=L'Utopiste
TTITLE2=Gondola
TTITLE3=Middle Rose
TTITLE4=Isabelle
TTITLE5=Buffelfanger
TTITLE6=Danton lit
TTITLE7=Dravis' Bar
TTITLE8=Last Lachs
TTITLE9=Mole
TTITLE10=Rest
EXTD=YEAR: 1991
EXTT0=
EXTT1=
EXTT2=
EXTT3=
EXTT4=
EXTT5=
EXTT6=
EXTT7=
EXTT8=
EXTT9=
EXTT10=
PLAYORDER=
